<svg width="507.7" height="74.4" viewBox="0 0 507.7 74.4" xmlns="http://www.w3.org/2000/svg"><g id="svgGroup" stroke-linecap="round" fill-rule="evenodd" font-size="9pt" stroke="#47e8c2" stroke-width="0.25mm" fill="#ffffff" style="stroke:#47e8c2;stroke-width:0.25mm;fill:#ffffff"><path d="M 131.8 56.7 L 131.2 57.1 Q 128.5 61.9 124.95 66 Q 122.05 69.349 120.051 71.097 A 18.322 18.322 0 0 1 119.2 71.8 L 117 73.5 A 7.067 7.067 0 0 1 116.553 73.872 Q 116.105 74.213 115.755 74.334 A 1.096 1.096 0 0 1 115.4 74.4 A 1.85 1.85 0 0 1 114.788 74.305 Q 114.263 74.121 113.984 73.585 A 2.08 2.08 0 0 1 113.9 73.4 Q 111.86 69.506 109.219 58.822 A 248.809 248.809 0 0 1 108.8 57.1 L 107.9 53 A 171.297 171.297 0 0 0 106.708 47.842 Q 105.391 42.544 104.05 38.9 Q 102.515 34.728 101.568 33.282 A 3.022 3.022 0 0 0 101.1 32.7 L 100.1 31.8 A 2.069 2.069 0 0 1 99.728 31.637 Q 99.2 31.336 99.2 30.8 Q 99.2 29.4 103.35 27.8 Q 106.755 26.487 108.915 26.252 A 8.187 8.187 0 0 1 109.8 26.2 A 4.369 4.369 0 0 1 110.957 26.342 Q 112.308 26.713 112.85 28.05 A 10.26 10.26 0 0 1 113.161 28.978 Q 113.9 31.494 115.2 38.4 A 459.29 459.29 0 0 0 116.214 43.65 Q 119.521 60.216 121.185 60.78 A 0.358 0.358 0 0 0 121.3 60.8 Q 121.789 60.8 122.379 60.101 A 5.542 5.542 0 0 0 122.65 59.75 A 239.297 239.297 0 0 0 123.255 58.899 Q 123.524 58.518 123.823 58.094 A 473.259 473.259 0 0 0 124.45 57.2 Q 125.5 55.7 127.3 52 A 22.567 22.567 0 0 0 128.325 49.563 Q 128.761 48.311 128.952 47.182 A 10.101 10.101 0 0 0 129.1 45.5 A 2.357 2.357 0 0 0 129.075 45.219 Q 128.988 44.555 128.589 42.712 A 158.343 158.343 0 0 0 128.4 41.85 Q 127.7 38.7 126.35 35.75 Q 125 32.8 124.2 32.4 A 10.851 10.851 0 0 1 123.588 32.036 Q 122.4 31.269 122.4 30.7 A 1.054 1.054 0 0 1 122.673 30.051 Q 123.457 29.075 126.5 27.85 A 26.468 26.468 0 0 1 129.581 26.813 Q 131.168 26.391 132.614 26.26 A 14.186 14.186 0 0 1 133.9 26.2 A 1.907 1.907 0 0 1 135.53 27.041 Q 135.81 27.43 136 28 A 47.274 47.274 0 0 1 136.787 30.816 Q 137.968 35.522 139.457 44.073 A 436.287 436.287 0 0 1 139.6 44.9 Q 141.868 58.003 143.854 60.1 A 1.062 1.062 0 0 0 144.6 60.5 Q 145.4 60.5 147 58.25 A 16.601 16.601 0 0 0 148.069 56.507 Q 149.053 54.681 150.017 52.064 A 54.803 54.803 0 0 0 150.15 51.7 A 33.197 33.197 0 0 0 151.032 48.891 Q 151.7 46.352 151.7 44.35 Q 151.7 41.836 151.53 40.273 A 14.969 14.969 0 0 0 151.45 39.65 A 6.188 6.188 0 0 0 151.109 38.393 Q 150.663 37.214 149.707 35.811 A 19.349 19.349 0 0 0 149.7 35.8 A 8.237 8.237 0 0 0 148.723 34.606 Q 148.097 33.981 147.412 33.63 A 4.043 4.043 0 0 0 146.3 33.25 Q 145.128 33.034 144.679 32.609 A 0.816 0.816 0 0 1 144.4 32 A 1.435 1.435 0 0 1 144.689 31.206 Q 145.336 30.253 147.436 29.02 A 29.406 29.406 0 0 1 148.55 28.4 A 18.562 18.562 0 0 1 154.645 26.374 A 17.333 17.333 0 0 1 157.1 26.2 A 3.354 3.354 0 0 1 160.234 28.267 Q 161.063 29.9 161.247 32.821 A 28.277 28.277 0 0 1 161.3 34.6 Q 161.3 45.1 155.1 56.2 A 59.003 59.003 0 0 1 148.484 65.803 A 45.544 45.544 0 0 1 140.1 73.5 Q 139.111 74.192 138.611 74.2 A 0.725 0.725 0 0 1 138.6 74.2 A 2.065 2.065 0 0 1 138.016 74.123 A 1.403 1.403 0 0 1 137.1 73.3 A 42.135 42.135 0 0 1 135.073 68.445 Q 134.227 66.04 133.484 63.203 A 100.174 100.174 0 0 1 132.1 57.1 Q 132.035 56.84 131.927 56.749 A 0.193 0.193 0 0 0 131.8 56.7 Z M 351.512 49.362 A 1.37 1.37 0 0 0 350.3 48.6 A 1.257 1.257 0 0 0 349.806 48.697 Q 349.336 48.896 349 49.5 A 20.098 20.098 0 0 1 348.465 50.602 A 17.138 17.138 0 0 1 345.7 54.5 A 18.985 18.985 0 0 1 342.961 57.062 A 12.765 12.765 0 0 1 335.1 59.8 A 16.816 16.816 0 0 1 332.763 59.643 A 13.014 13.014 0 0 1 328.9 58.5 A 11.27 11.27 0 0 1 326.274 56.701 Q 324.886 55.442 323.696 53.627 A 24.816 24.816 0 0 1 321.8 50.1 Q 320.282 46.733 319.766 41.928 A 50.033 50.033 0 0 1 319.5 36.6 A 47.266 47.266 0 0 1 319.501 36.321 Q 319.526 31.984 320.347 27.223 A 76.913 76.913 0 0 1 322.5 18.2 A 25.616 25.616 0 0 1 323.829 14.689 A 19.613 19.613 0 0 1 326.95 9.9 Q 329.9 6.6 333.5 6.6 A 9.169 9.169 0 0 1 334.739 6.681 A 6.172 6.172 0 0 1 339 9.1 A 5.199 5.199 0 0 1 339.734 10.574 A 6.066 6.066 0 0 1 340 12.4 A 9 9 0 0 1 339.961 13.243 A 7.158 7.158 0 0 1 338.8 16.6 Q 338.125 17.613 337.387 18.182 A 3.533 3.533 0 0 1 336.2 18.8 A 1.466 1.466 0 0 0 335.197 19.549 Q 335.036 19.843 334.962 20.245 A 4.198 4.198 0 0 0 334.9 21 Q 334.9 22.9 335.7 24.5 A 9.044 9.044 0 0 0 336.083 25.238 Q 337.327 27.382 339.472 28.159 A 7.967 7.967 0 0 0 342.2 28.6 A 11.843 11.843 0 0 0 343.997 28.468 A 9.059 9.059 0 0 0 347.4 27.25 A 13.717 13.717 0 0 0 347.821 26.981 Q 348.666 26.42 349.312 25.801 A 7.455 7.455 0 0 0 350.6 24.2 A 15.359 15.359 0 0 0 351.81 21.667 A 16.515 16.515 0 0 0 352.8 15.9 A 18.964 18.964 0 0 0 352.561 12.83 A 14.305 14.305 0 0 0 351.1 8.4 A 20.108 20.108 0 0 0 350.608 7.527 Q 349.088 4.98 347.2 3.65 A 13.756 13.756 0 0 0 346.43 3.146 Q 344.424 1.925 341.55 1.05 A 26.06 26.06 0 0 0 339.418 0.496 A 21.555 21.555 0 0 0 334.9 0 A 28.195 28.195 0 0 0 332.826 0.075 A 22.705 22.705 0 0 0 321.7 3.8 Q 316 7.6 312.9 13.85 Q 309.8 20.1 308.3 27 A 62.495 62.495 0 0 0 307.446 31.862 A 73.79 73.79 0 0 0 306.8 41.8 Q 306.8 49.7 309.1 56.9 A 33.152 33.152 0 0 0 310.484 60.577 A 25.643 25.643 0 0 0 313.1 65.15 A 15.64 15.64 0 0 0 313.304 65.425 Q 314.676 67.234 316.667 68.776 A 25.388 25.388 0 0 0 320.3 71.1 A 20.885 20.885 0 0 0 330.158 73.601 Q 332.61 73.601 335.145 73.026 A 28.523 28.523 0 0 0 340.3 71.3 Q 343.5 70 346.05 67.9 A 12.437 12.437 0 0 0 346.46 67.547 Q 347.696 66.435 348.748 64.904 A 21.022 21.022 0 0 0 350.4 62 Q 352.2 58.2 352.2 53.4 A 22.243 22.243 0 0 0 352.194 52.87 Q 352.135 50.404 351.512 49.362 Z M 424.5 27.5 L 425.1 27 L 424.7 16.1 Q 424.5 13.3 423.5 11.3 Q 422.731 9.763 422.081 9.053 A 2.819 2.819 0 0 0 421.7 8.7 L 420.8 8.2 Q 420.2 7.8 420.2 7.3 Q 420.2 6.015 423.611 4.364 A 30.546 30.546 0 0 1 424.85 3.8 Q 428.664 2.159 431.099 1.865 A 8.35 8.35 0 0 1 432.1 1.8 A 9.38 9.38 0 0 1 432.991 1.839 Q 434.738 2.006 434.9 2.9 Q 435.31 5.69 435.384 12.621 A 304.884 304.884 0 0 1 435.4 15.85 Q 435.4 25.4 434.95 34.6 Q 434.53 43.189 434.502 53.914 A 590.659 590.659 0 0 0 434.5 55.45 Q 434.5 64.989 435.506 68.729 A 7.41 7.41 0 0 0 436 70.1 Q 436.322 70.663 436.385 71.161 A 1.903 1.903 0 0 1 436.4 71.4 A 1.02 1.02 0 0 1 435.845 72.284 Q 435.008 72.805 432.911 72.885 A 21.163 21.163 0 0 1 432.1 72.9 Q 427.329 72.9 425.334 71.58 A 2.946 2.946 0 0 1 423.9 69 Q 423.747 67.78 423.711 65.541 A 92.532 92.532 0 0 1 423.7 64.05 A 59.708 59.708 0 0 1 423.736 62.161 Q 423.852 58.555 424.35 51.55 Q 424.886 44.008 424.98 39.32 A 93.454 93.454 0 0 0 425 37.45 Q 425 32.5 420.05 32.5 A 7.191 7.191 0 0 0 414.174 35.464 Q 413.3 36.572 412.593 38.095 A 17.565 17.565 0 0 0 412.5 38.3 A 29.638 29.638 0 0 0 410.221 45.822 A 26.158 26.158 0 0 0 409.9 49.9 A 36.642 36.642 0 0 0 410.109 54.002 Q 411.038 62.2 416.1 62.2 Q 417 62.2 417.85 61.85 A 17.544 17.544 0 0 1 418.146 61.731 Q 418.725 61.505 418.893 61.5 A 0.249 0.249 0 0 1 418.9 61.5 Q 419.629 61.5 420.067 62.33 A 3.002 3.002 0 0 1 420.15 62.5 A 5.096 5.096 0 0 1 420.544 63.797 A 4.493 4.493 0 0 1 420.6 64.5 A 7.251 7.251 0 0 1 418.305 69.876 A 9.571 9.571 0 0 1 417.9 70.25 A 9.512 9.512 0 0 1 412.139 72.572 A 12.326 12.326 0 0 1 411.3 72.6 Q 405.871 72.6 402.858 68.302 A 13.252 13.252 0 0 1 402.25 67.35 A 21.45 21.45 0 0 1 399.893 61.155 Q 399.2 58.017 399.2 54.3 Q 399.2 44.4 403.9 35.9 Q 406.3 31.7 410.4 29.15 A 17.015 17.015 0 0 1 418.735 26.622 A 20.602 20.602 0 0 1 419.7 26.6 A 12.408 12.408 0 0 1 421.488 26.723 A 9.589 9.589 0 0 1 422.95 27.05 A 129.683 129.683 0 0 0 423.291 27.155 Q 424.311 27.469 424.476 27.497 A 0.158 0.158 0 0 0 424.5 27.5 Z M 97.1 41.5 L 96.9 54.3 Q 96.9 65.318 98.89 69.061 A 4.67 4.67 0 0 0 99.8 70.3 A 1.474 1.474 0 0 1 100.059 70.642 A 1.16 1.16 0 0 1 100.2 71.2 A 0.851 0.851 0 0 1 99.707 71.915 Q 98.511 72.643 94.409 72.696 A 51.214 51.214 0 0 1 93.75 72.7 A 16.398 16.398 0 0 1 91.42 72.549 Q 88.823 72.174 87.709 70.867 A 3.522 3.522 0 0 1 86.9 68.9 A 9.722 9.722 0 0 1 86.861 68.415 Q 86.8 67.388 86.8 65.2 L 87.2 49.2 Q 87.2 48.5 86.4 48.5 Q 81.6 48.5 77.4 51.2 A 11.073 11.073 0 0 0 75.185 53.034 A 7.289 7.289 0 0 0 73.2 58.1 A 6.683 6.683 0 0 0 73.43 59.891 A 5.28 5.28 0 0 0 74.4 61.8 Q 75.6 63.3 77.35 63.3 A 7.244 7.244 0 0 0 78.578 63.202 Q 79.292 63.079 79.874 62.802 A 4.108 4.108 0 0 0 80.25 62.6 A 152.561 152.561 0 0 1 80.648 62.359 Q 81.331 61.945 81.545 61.829 A 1.827 1.827 0 0 1 81.6 61.8 Q 83.102 61.977 83.277 64.612 A 11.16 11.16 0 0 1 83.3 65.35 A 5.974 5.974 0 0 1 81.174 70.007 A 8.726 8.726 0 0 1 80.2 70.75 A 12.478 12.478 0 0 1 76.643 72.401 A 10.977 10.977 0 0 1 73.7 72.8 Q 70.42 72.8 68.025 71.683 A 10.017 10.017 0 0 1 67.85 71.6 A 14.058 14.058 0 0 1 66.341 70.75 Q 65.606 70.27 65.056 69.749 A 6.305 6.305 0 0 1 64.3 68.9 A 13.412 13.412 0 0 1 62.777 66.198 A 15.461 15.461 0 0 1 62.5 65.5 A 19.396 19.396 0 0 1 62.073 63.859 Q 61.8 62.563 61.8 61.5 A 18.021 18.021 0 0 1 62.458 56.505 A 13.631 13.631 0 0 1 66.2 50.3 A 23.21 23.21 0 0 1 73.052 45.821 A 30.399 30.399 0 0 1 77.5 44.3 A 96.123 96.123 0 0 0 80.371 43.69 Q 86.669 42.242 87 41 A 5.796 5.796 0 0 0 87.131 40.356 Q 87.245 39.613 87.282 38.489 A 36.097 36.097 0 0 0 87.3 37.3 Q 87.3 33.092 83.895 32.225 A 8.105 8.105 0 0 0 81.9 32 Q 79.6 32 77.8 33.45 A 5.025 5.025 0 0 0 76.602 34.807 A 4.432 4.432 0 0 0 76 37.1 L 76.6 39.5 A 1.686 1.686 0 0 1 75.787 40.736 Q 74.886 41.334 73 41.5 L 71.9 41.6 A 9.738 9.738 0 0 1 69.985 41.423 Q 68.298 41.084 67.15 40.1 A 4.916 4.916 0 0 1 65.413 36.522 A 6.791 6.791 0 0 1 65.4 36.1 A 5.787 5.787 0 0 1 65.601 34.633 Q 65.775 33.97 66.098 33.258 A 11.691 11.691 0 0 1 66.45 32.55 A 10.117 10.117 0 0 1 67.934 30.452 A 8.752 8.752 0 0 1 69.1 29.4 A 8.559 8.559 0 0 1 70.271 28.674 Q 71.539 28.012 73.419 27.436 A 31.556 31.556 0 0 1 74.05 27.25 A 25.255 25.255 0 0 1 78.14 26.434 A 21.28 21.28 0 0 1 80.5 26.3 Q 83.055 26.3 84.659 26.436 A 19.819 19.819 0 0 1 85.3 26.5 A 20.425 20.425 0 0 1 86.468 26.676 Q 87.708 26.896 89.388 27.309 A 77.138 77.138 0 0 1 89.95 27.45 A 10.173 10.173 0 0 1 93.427 29.041 A 9.577 9.577 0 0 1 94.85 30.3 A 9.024 9.024 0 0 1 96.099 31.979 A 6.389 6.389 0 0 1 96.95 34.75 Q 97.065 36.549 97.092 39.55 A 217.947 217.947 0 0 1 97.1 41.5 Z M 6.9 53.5 L 7.5 35.8 L 0.8 35.8 A 1.568 1.568 0 0 1 0.511 35.776 Q 0 35.679 0 35.2 A 4.741 4.741 0 0 1 0.249 33.741 Q 0.649 32.505 1.692 31.061 A 15.521 15.521 0 0 1 1.7 31.05 A 8.133 8.133 0 0 1 2.652 29.941 Q 3.234 29.383 3.847 29.076 A 3.431 3.431 0 0 1 5.4 28.7 L 7.5 28.7 Q 7.316 21.517 7.132 18.065 A 104.183 104.183 0 0 0 7.1 17.5 Q 6.7 11.4 5.1 8.1 L 4.6 7.1 A 1.821 1.821 0 0 1 4.206 6.072 A 2.326 2.326 0 0 1 4.2 5.9 A 0.924 0.924 0 0 1 4.434 5.297 Q 4.68 5.002 5.185 4.754 A 4.308 4.308 0 0 1 5.3 4.7 Q 6.142 4.317 7.6 3.817 A 63.932 63.932 0 0 1 8.55 3.5 A 17.61 17.61 0 0 1 9.723 3.172 Q 12.231 2.548 17.7 1.65 A 85.968 85.968 0 0 1 26.453 0.69 A 107.91 107.91 0 0 1 32.95 0.5 A 87.709 87.709 0 0 1 35.673 0.539 Q 41.335 0.716 41.95 1.7 A 3.929 3.929 0 0 1 42.361 2.633 Q 42.652 3.581 42.693 4.978 A 16.07 16.07 0 0 1 42.7 5.45 A 14.175 14.175 0 0 1 42.679 6.251 Q 42.58 8 42 8 A 0.621 0.621 0 0 1 41.945 7.996 Q 41.788 7.981 41.3 7.9 A 9.894 9.894 0 0 0 40.266 7.707 Q 38.772 7.5 36.4 7.5 A 41.592 41.592 0 0 0 32.305 7.712 A 52.384 52.384 0 0 0 29.3 8.1 Q 26.168 8.595 24.259 9.089 A 20.793 20.793 0 0 0 23.5 9.3 L 21.6 10 Q 20.975 10.156 20.594 10.923 A 3.71 3.71 0 0 0 20.4 11.4 A 66.018 66.018 0 0 0 20.013 15.154 Q 19.6 20.506 19.6 28.7 L 35.8 28.7 Q 36.667 28.7 36.699 29.257 A 0.758 0.758 0 0 1 36.7 29.3 Q 36.7 31.099 35.101 33.499 A 6.554 6.554 0 0 0 35.1 33.5 Q 34.161 34.909 33.084 35.49 A 3.288 3.288 0 0 1 31.5 35.9 L 19.6 35.8 L 20.3 65.8 A 10.986 10.986 0 0 1 20.248 66.913 Q 20.109 68.273 19.6 69 Q 18.163 70.89 15.212 72.066 A 19.626 19.626 0 0 1 13.15 72.75 A 46.489 46.489 0 0 1 10.458 73.409 Q 7.663 74 5.6 74 Q 4.878 74 4.808 73.186 A 2.155 2.155 0 0 1 4.8 73 Q 4.8 72.675 4.842 72.434 A 1.641 1.641 0 0 1 4.9 72.2 A 3.796 3.796 0 0 0 5.336 71.025 Q 6.083 67.992 6.653 58.22 A 420.397 420.397 0 0 0 6.9 53.5 Z M 393 27.2 L 394 27.5 A 4.707 4.707 0 0 1 394.438 27.707 Q 395.2 28.122 395.2 28.6 A 0.68 0.68 0 0 1 394.985 29.093 Q 394.812 29.266 394.5 29.4 A 17.577 17.577 0 0 0 390.086 31.426 A 20.272 20.272 0 0 0 389.3 31.95 A 25.141 25.141 0 0 0 388.45 32.569 Q 386.8 33.831 386.8 34.4 L 387.4 35.1 A 11.028 11.028 0 0 1 391.242 38.759 A 14.781 14.781 0 0 1 392.35 40.8 A 28.882 28.882 0 0 1 393.426 43.543 Q 393.887 44.937 394.112 46.194 A 13.765 13.765 0 0 1 394.3 47.7 L 394.5 50.8 A 29.228 29.228 0 0 1 393.592 58.266 A 21.932 21.932 0 0 1 389 67.1 Q 383.5 73.5 374 73.5 A 22.823 22.823 0 0 1 370.049 73.175 Q 367.687 72.76 365.731 71.815 A 14.507 14.507 0 0 1 365.7 71.8 A 20.513 20.513 0 0 1 363.512 70.578 Q 362.426 69.874 361.605 69.106 A 9.584 9.584 0 0 1 360.55 67.95 A 18.294 18.294 0 0 1 358.028 63.435 A 20.52 20.52 0 0 1 357.9 63.1 Q 356.7 59.4 356.7 55.45 A 24.487 24.487 0 0 1 357.809 48.25 A 27.781 27.781 0 0 1 358.05 47.5 A 27.438 27.438 0 0 1 358.933 45.205 Q 359.947 42.906 361.15 41.6 Q 362.9 39.7 365.1 38.5 A 20.03 20.03 0 0 1 366.569 37.783 Q 368.371 37 369.6 37 A 6.31 6.31 0 0 1 370.134 37.021 Q 371.012 37.096 371.229 37.443 A 0.475 0.475 0 0 1 371.3 37.7 L 370.7 38.7 A 13.334 13.334 0 0 0 368.715 41.914 Q 368.085 43.329 367.666 45.013 A 22.979 22.979 0 0 0 367.55 45.5 A 43.629 43.629 0 0 0 366.918 48.875 Q 366.679 50.522 366.62 51.991 A 23.691 23.691 0 0 0 366.6 52.95 Q 366.6 56.2 367.4 59.4 A 29.472 29.472 0 0 0 367.893 61.155 Q 368.411 62.788 369.002 63.823 A 7.103 7.103 0 0 0 369.2 64.15 Q 370.2 65.7 371.5 66.5 A 7.693 7.693 0 0 0 374.012 67.544 A 7.113 7.113 0 0 0 375.5 67.7 A 5.671 5.671 0 0 0 378.086 67.055 A 8.231 8.231 0 0 0 379.6 66.05 A 9.07 9.07 0 0 0 382.192 62.518 A 11.187 11.187 0 0 0 382.5 61.7 Q 384.3 56.7 384.3 51.4 A 26.693 26.693 0 0 0 383.842 46.297 Q 382.905 41.491 380.05 38.4 A 13.535 13.535 0 0 0 373.782 34.619 Q 371.61 33.979 368.997 33.839 A 28.005 28.005 0 0 0 367.5 33.8 Q 364.9 33.9 363.75 33.95 A 4.103 4.103 0 0 1 363.642 33.953 Q 362.961 33.965 362.725 33.725 A 0.444 0.444 0 0 1 362.6 33.4 Q 362.6 32.8 363.2 32.2 Q 369.6 26.3 384.8 26.3 Q 389.822 26.3 392.792 27.139 A 13.534 13.534 0 0 1 393 27.2 Z M 250.9 57.8 Q 250.9 62.1 249.25 65.3 A 18.074 18.074 0 0 1 248.006 67.38 Q 247.281 68.417 246.483 69.181 A 8.904 8.904 0 0 1 245.5 70 Q 243.4 71.5 240.5 72.4 A 28.704 28.704 0 0 1 237.309 73.22 Q 235.712 73.529 234.262 73.587 A 16.607 16.607 0 0 1 233.6 73.6 A 27.495 27.495 0 0 1 229.034 73.241 Q 225.488 72.644 222.8 71.05 A 8.336 8.336 0 0 1 218.677 65.049 A 12.438 12.438 0 0 1 218.5 62.9 A 9.92 9.92 0 0 1 218.775 60.505 A 7.217 7.217 0 0 1 220.3 57.5 A 9.797 9.797 0 0 1 222.935 55.395 A 8.471 8.471 0 0 1 227 54.4 Q 228.2 54.4 228.2 55.5 Q 228.2 55.587 227.856 56.705 A 129.338 129.338 0 0 1 227.75 57.05 Q 227.3 58.5 227.3 60.7 A 5.136 5.136 0 0 0 228.592 64.112 A 6.994 6.994 0 0 0 229.05 64.6 Q 230.8 66.3 233.3 66.3 A 11.974 11.974 0 0 0 234.884 66.202 Q 235.686 66.095 236.35 65.87 A 5.481 5.481 0 0 0 237.3 65.45 Q 238.8 64.6 239.4 63.3 A 9.473 9.473 0 0 0 239.999 61.817 Q 240.269 60.926 240.297 60.089 A 5.754 5.754 0 0 0 240.3 59.9 Q 240.3 57 237.4 54.9 Q 234.5 52.8 231 51.6 A 16.826 16.826 0 0 1 225.521 48.436 A 19.954 19.954 0 0 1 224.6 47.6 A 9.287 9.287 0 0 1 221.703 40.861 A 11.979 11.979 0 0 1 221.7 40.6 A 18.053 18.053 0 0 1 222.178 36.31 A 11.519 11.519 0 0 1 226.25 29.8 A 15.636 15.636 0 0 1 231.806 27.045 Q 234.068 26.411 236.759 26.253 A 31.346 31.346 0 0 1 238.6 26.2 A 27.243 27.243 0 0 1 243.213 26.609 A 33.259 33.259 0 0 1 245.75 27.15 A 10.383 10.383 0 0 1 247.165 27.609 Q 249.5 28.575 249.5 30.35 A 11.805 11.805 0 0 1 249.177 33.152 A 10.315 10.315 0 0 1 248.75 34.5 A 6.223 6.223 0 0 1 248.406 35.239 Q 247.76 36.4 246.9 36.4 A 1.227 1.227 0 0 1 246.602 36.366 A 0.709 0.709 0 0 1 246.1 35.95 A 2.967 2.967 0 0 0 245.927 35.623 Q 245.728 35.294 245.4 34.9 A 2.41 2.41 0 0 0 245.069 34.583 Q 244.432 34.066 243 33.35 A 12.158 12.158 0 0 0 241.866 32.849 Q 241.291 32.632 240.776 32.519 A 4.832 4.832 0 0 0 239.75 32.4 Q 238.4 32.4 237.95 32.45 Q 237.5 32.5 236.4 32.75 A 7.835 7.835 0 0 0 234.93 33.235 A 6.889 6.889 0 0 0 234.4 33.5 A 5.012 5.012 0 0 0 233.093 34.532 Q 232.147 35.604 232.102 37.147 A 5.317 5.317 0 0 0 232.1 37.3 A 5.795 5.795 0 0 0 232.158 38.154 Q 232.302 39.117 232.8 39.65 Q 233.336 40.224 233.696 40.593 A 23.739 23.739 0 0 0 233.9 40.8 A 2.93 2.93 0 0 0 234.172 41.037 Q 234.481 41.277 234.968 41.562 A 14.338 14.338 0 0 0 235.3 41.75 Q 236.123 42.203 236.54 42.418 A 13.097 13.097 0 0 0 236.7 42.5 A 18.031 18.031 0 0 0 236.923 42.609 Q 237.293 42.788 238.021 43.127 A 300.073 300.073 0 0 0 238.5 43.35 A 287.998 287.998 0 0 1 239.065 43.613 Q 239.771 43.943 240.12 44.112 A 16.275 16.275 0 0 1 240.3 44.2 Q 250.9 49.2 250.9 57.8 Z M 285.1 57.8 Q 285.1 62.1 283.45 65.3 A 18.074 18.074 0 0 1 282.206 67.38 Q 281.481 68.417 280.683 69.181 A 8.904 8.904 0 0 1 279.7 70 Q 277.6 71.5 274.7 72.4 A 28.704 28.704 0 0 1 271.509 73.22 Q 269.912 73.529 268.462 73.587 A 16.607 16.607 0 0 1 267.8 73.6 A 27.495 27.495 0 0 1 263.234 73.241 Q 259.688 72.644 257 71.05 A 8.336 8.336 0 0 1 252.877 65.049 A 12.438 12.438 0 0 1 252.7 62.9 A 9.92 9.92 0 0 1 252.975 60.505 A 7.217 7.217 0 0 1 254.5 57.5 A 9.797 9.797 0 0 1 257.135 55.395 A 8.471 8.471 0 0 1 261.2 54.4 Q 262.4 54.4 262.4 55.5 Q 262.4 55.587 262.056 56.705 A 129.338 129.338 0 0 1 261.95 57.05 Q 261.5 58.5 261.5 60.7 A 5.136 5.136 0 0 0 262.792 64.112 A 6.994 6.994 0 0 0 263.25 64.6 Q 265 66.3 267.5 66.3 A 11.974 11.974 0 0 0 269.084 66.202 Q 269.886 66.095 270.55 65.87 A 5.481 5.481 0 0 0 271.5 65.45 Q 273 64.6 273.6 63.3 A 9.473 9.473 0 0 0 274.199 61.817 Q 274.469 60.926 274.497 60.089 A 5.754 5.754 0 0 0 274.5 59.9 Q 274.5 57 271.6 54.9 Q 268.7 52.8 265.2 51.6 A 16.826 16.826 0 0 1 259.721 48.436 A 19.954 19.954 0 0 1 258.8 47.6 A 9.287 9.287 0 0 1 255.903 40.861 A 11.979 11.979 0 0 1 255.9 40.6 A 18.053 18.053 0 0 1 256.378 36.31 A 11.519 11.519 0 0 1 260.45 29.8 A 15.636 15.636 0 0 1 266.006 27.045 Q 268.268 26.411 270.959 26.253 A 31.346 31.346 0 0 1 272.8 26.2 A 27.243 27.243 0 0 1 277.413 26.609 A 33.259 33.259 0 0 1 279.95 27.15 A 10.383 10.383 0 0 1 281.365 27.609 Q 283.7 28.575 283.7 30.35 A 11.805 11.805 0 0 1 283.377 33.152 A 10.315 10.315 0 0 1 282.95 34.5 A 6.223 6.223 0 0 1 282.606 35.239 Q 281.96 36.4 281.1 36.4 A 1.227 1.227 0 0 1 280.802 36.366 A 0.709 0.709 0 0 1 280.3 35.95 A 2.967 2.967 0 0 0 280.127 35.623 Q 279.928 35.294 279.6 34.9 A 2.41 2.41 0 0 0 279.269 34.583 Q 278.632 34.066 277.2 33.35 A 12.158 12.158 0 0 0 276.066 32.849 Q 275.491 32.632 274.976 32.519 A 4.832 4.832 0 0 0 273.95 32.4 Q 272.6 32.4 272.15 32.45 Q 271.7 32.5 270.6 32.75 A 7.835 7.835 0 0 0 269.13 33.235 A 6.889 6.889 0 0 0 268.6 33.5 A 5.012 5.012 0 0 0 267.293 34.532 Q 266.347 35.604 266.302 37.147 A 5.317 5.317 0 0 0 266.3 37.3 A 5.795 5.795 0 0 0 266.358 38.154 Q 266.502 39.117 267 39.65 Q 267.536 40.224 267.896 40.593 A 23.739 23.739 0 0 0 268.1 40.8 A 2.93 2.93 0 0 0 268.372 41.037 Q 268.681 41.277 269.168 41.562 A 14.338 14.338 0 0 0 269.5 41.75 Q 270.323 42.203 270.74 42.418 A 13.097 13.097 0 0 0 270.9 42.5 A 18.031 18.031 0 0 0 271.123 42.609 Q 271.493 42.788 272.221 43.127 A 300.073 300.073 0 0 0 272.7 43.35 A 287.998 287.998 0 0 1 273.265 43.613 Q 273.971 43.943 274.32 44.112 A 16.275 16.275 0 0 1 274.5 44.2 Q 285.1 49.2 285.1 57.8 Z M 507.7 37.1 L 507.2 44.7 L 507.6 48.2 A 1.548 1.548 0 0 1 506.614 49.668 Q 505.876 50.023 504.586 50.086 A 11.983 11.983 0 0 1 504 50.1 A 14.242 14.242 0 0 1 501.358 49.877 Q 497.009 49.052 496.72 45.167 A 7.663 7.663 0 0 1 496.7 44.6 A 6.774 6.774 0 0 1 496.765 43.715 Q 496.889 42.781 497.251 41.507 A 28.107 28.107 0 0 1 497.4 41 A 19.396 19.396 0 0 0 497.827 39.359 Q 498.1 38.063 498.1 37 Q 498.1 35.3 497.1 34.05 Q 496.1 32.8 494.2 32.8 A 4.424 4.424 0 0 0 490.992 34.108 A 5.392 5.392 0 0 0 490.95 34.15 A 7.667 7.667 0 0 0 490.1 35.148 Q 489.681 35.743 489.46 36.348 A 4.13 4.13 0 0 0 489.3 36.9 L 488.9 38.3 Q 488.448 40.637 488.336 45.333 A 140.562 140.562 0 0 0 488.3 48.65 Q 488.3 54.201 488.417 57.934 A 126.894 126.894 0 0 0 488.5 60.05 Q 488.673 63.647 488.847 65.291 A 20.03 20.03 0 0 0 488.9 65.75 A 100.246 100.246 0 0 1 488.968 66.287 Q 489.082 67.214 489.098 67.52 A 1.645 1.645 0 0 1 489.1 67.6 A 3.748 3.748 0 0 1 487.904 70.339 Q 487.38 70.859 486.626 71.309 A 9.641 9.641 0 0 1 486 71.65 A 14.928 14.928 0 0 1 482.513 72.903 A 12.66 12.66 0 0 1 479.8 73.2 A 11.155 11.155 0 0 1 478.786 73.158 Q 477.149 73.008 476.797 72.319 A 0.906 0.906 0 0 1 476.7 71.9 L 477.2 68.8 Q 478.141 62.955 478.449 54.717 A 230.877 230.877 0 0 0 478.6 46.1 A 309.445 309.445 0 0 0 478.545 40.032 Q 478.366 30.928 477.6 27.1 Q 477.6 25.9 479.7 25.9 A 12.127 12.127 0 0 1 482.315 26.161 Q 485.578 26.883 486.9 29.6 A 1.063 1.063 0 0 0 486.949 29.751 Q 487.053 30 487.25 30 A 0.371 0.371 0 0 0 487.387 29.963 Q 487.723 29.817 488.6 29.1 A 11.906 11.906 0 0 1 496.242 26.401 A 14.893 14.893 0 0 1 496.4 26.4 A 15.018 15.018 0 0 1 501.388 27.273 A 17.304 17.304 0 0 1 502 27.5 A 8.433 8.433 0 0 1 507.246 33.378 Q 507.7 35.04 507.7 37.1 Z M 214.636 62.858 A 15.743 15.743 0 0 0 215 59.4 A 2.254 2.254 0 0 0 214.987 59.164 Q 214.927 58.599 214.6 57.7 Q 214.384 57.107 214.096 56.834 A 0.777 0.777 0 0 0 213.55 56.6 Q 212.9 56.6 212.5 57.4 A 13.282 13.282 0 0 1 212.034 58.329 A 11.169 11.169 0 0 1 209.9 61.1 Q 206.9 63.9 202.6 63.9 A 10.927 10.927 0 0 1 200.435 63.697 A 7.102 7.102 0 0 1 196.1 61.1 Q 195.3 59.9 194.65 58.15 A 19.065 19.065 0 0 1 194.434 57.54 Q 194 56.236 194 55.5 A 1.002 1.002 0 0 1 194.015 55.322 Q 194.086 54.927 194.498 54.831 A 1.33 1.33 0 0 1 194.8 54.8 A 49.347 49.347 0 0 0 195.519 54.72 Q 200.869 54.088 204.9 52.4 A 39.969 39.969 0 0 0 205.078 52.325 Q 207.78 51.179 209.553 49.951 A 11.899 11.899 0 0 0 211.2 48.6 Q 213.2 46.6 214.4 44.1 A 34.707 34.707 0 0 0 214.909 42.993 Q 215.391 41.892 215.623 41.102 A 6.135 6.135 0 0 0 215.8 40.35 A 10.149 10.149 0 0 0 215.828 40.164 Q 215.942 39.355 215.98 38.206 A 37.706 37.706 0 0 0 216 36.95 Q 216 35.673 215.542 34.309 A 12.123 12.123 0 0 0 214.7 32.4 A 10.718 10.718 0 0 0 211.848 28.839 Q 209.85 27.236 206.988 26.571 A 19.851 19.851 0 0 0 202.5 26.1 A 22.79 22.79 0 0 0 199.243 26.325 A 15.955 15.955 0 0 0 187.65 33.7 A 29.858 29.858 0 0 0 184.538 39.966 A 32.699 32.699 0 0 0 182.7 51.05 Q 182.7 60.8 186.7 67.1 A 12.81 12.81 0 0 0 194.061 72.722 A 17.642 17.642 0 0 0 199.1 73.4 A 19.318 19.318 0 0 0 201.685 73.222 A 23.789 23.789 0 0 0 205.4 72.4 A 18.969 18.969 0 0 0 207.111 71.785 A 15.29 15.29 0 0 0 209.95 70.25 A 8.323 8.323 0 0 0 210.772 69.598 Q 211.539 68.91 212.238 67.968 A 16.229 16.229 0 0 0 213.45 66.05 A 12.28 12.28 0 0 0 214.636 62.858 Z M 471.836 62.858 A 15.743 15.743 0 0 0 472.2 59.4 A 2.254 2.254 0 0 0 472.187 59.164 Q 472.127 58.599 471.8 57.7 Q 471.584 57.107 471.296 56.834 A 0.777 0.777 0 0 0 470.75 56.6 Q 470.1 56.6 469.7 57.4 A 13.282 13.282 0 0 1 469.234 58.329 A 11.169 11.169 0 0 1 467.1 61.1 Q 464.1 63.9 459.8 63.9 A 10.927 10.927 0 0 1 457.635 63.697 A 7.102 7.102 0 0 1 453.3 61.1 Q 452.5 59.9 451.85 58.15 A 19.065 19.065 0 0 1 451.634 57.54 Q 451.2 56.236 451.2 55.5 A 1.002 1.002 0 0 1 451.215 55.322 Q 451.286 54.927 451.698 54.831 A 1.33 1.33 0 0 1 452 54.8 A 49.347 49.347 0 0 0 452.719 54.72 Q 458.069 54.088 462.1 52.4 A 39.969 39.969 0 0 0 462.278 52.325 Q 464.98 51.179 466.753 49.951 A 11.899 11.899 0 0 0 468.4 48.6 Q 470.4 46.6 471.6 44.1 A 34.707 34.707 0 0 0 472.109 42.993 Q 472.591 41.892 472.823 41.102 A 6.135 6.135 0 0 0 473 40.35 A 10.149 10.149 0 0 0 473.028 40.164 Q 473.142 39.355 473.18 38.206 A 37.706 37.706 0 0 0 473.2 36.95 Q 473.2 35.673 472.742 34.309 A 12.123 12.123 0 0 0 471.9 32.4 A 10.718 10.718 0 0 0 469.048 28.839 Q 467.05 27.236 464.188 26.571 A 19.851 19.851 0 0 0 459.7 26.1 A 22.79 22.79 0 0 0 456.443 26.325 A 15.955 15.955 0 0 0 444.85 33.7 A 29.858 29.858 0 0 0 441.738 39.966 A 32.699 32.699 0 0 0 439.9 51.05 Q 439.9 60.8 443.9 67.1 A 12.81 12.81 0 0 0 451.261 72.722 A 17.642 17.642 0 0 0 456.3 73.4 A 19.318 19.318 0 0 0 458.885 73.222 A 23.789 23.789 0 0 0 462.6 72.4 A 18.969 18.969 0 0 0 464.311 71.785 A 15.29 15.29 0 0 0 467.15 70.25 A 8.323 8.323 0 0 0 467.972 69.598 Q 468.739 68.91 469.438 67.968 A 16.229 16.229 0 0 0 470.65 66.05 A 12.28 12.28 0 0 0 471.836 62.858 Z M 56.9 14.3 L 56.3 51 A 424.742 424.742 0 0 0 56.339 56.965 Q 56.502 68.531 57.354 71.451 A 5.388 5.388 0 0 0 57.4 71.6 A 2.889 2.889 0 0 1 57.643 72.275 A 2.45 2.45 0 0 1 57.7 72.8 A 0.883 0.883 0 0 1 57.203 73.588 Q 56.499 74 54.8 74 A 13.803 13.803 0 0 1 51.938 73.681 Q 50.662 73.411 49.282 72.91 A 25.264 25.264 0 0 1 48.35 72.55 Q 45.365 71.331 44.89 69.511 A 2.802 2.802 0 0 1 44.8 68.8 A 160.71 160.71 0 0 0 45.855 59.132 Q 46.737 48.261 46.796 33.517 A 532.656 532.656 0 0 0 46.8 31.4 L 46.4 16.1 A 16.478 16.478 0 0 0 46.081 13.803 Q 45.822 12.597 45.38 11.585 A 9.795 9.795 0 0 0 45.25 11.3 Q 44.3 9.3 43.4 8.7 L 42.6 8.2 Q 41.918 7.811 41.9 7.326 A 0.709 0.709 0 0 1 41.9 7.3 Q 41.9 6.103 45.08 4.431 A 29.985 29.985 0 0 1 46.25 3.85 Q 50.6 1.8 54.7 1.8 A 3.486 3.486 0 0 1 55.328 1.852 Q 55.653 1.912 55.89 2.041 A 1.164 1.164 0 0 1 56.5 2.9 Q 56.9 5.5 56.9 14.3 Z M 176.9 14.3 L 176.3 51 A 424.742 424.742 0 0 0 176.339 56.965 Q 176.502 68.531 177.354 71.451 A 5.388 5.388 0 0 0 177.4 71.6 A 2.889 2.889 0 0 1 177.643 72.275 A 2.45 2.45 0 0 1 177.7 72.8 A 0.883 0.883 0 0 1 177.203 73.588 Q 176.499 74 174.8 74 A 13.803 13.803 0 0 1 171.938 73.681 Q 170.662 73.411 169.282 72.91 A 25.264 25.264 0 0 1 168.35 72.55 Q 165.365 71.331 164.89 69.511 A 2.802 2.802 0 0 1 164.8 68.8 A 160.71 160.71 0 0 0 165.855 59.132 Q 166.737 48.261 166.796 33.517 A 532.656 532.656 0 0 0 166.8 31.4 L 166.4 16.1 A 16.478 16.478 0 0 0 166.081 13.803 Q 165.822 12.597 165.38 11.585 A 9.795 9.795 0 0 0 165.25 11.3 Q 164.3 9.3 163.4 8.7 L 162.6 8.2 Q 161.918 7.811 161.9 7.326 A 0.709 0.709 0 0 1 161.9 7.3 Q 161.9 6.103 165.08 4.431 A 29.985 29.985 0 0 1 166.25 3.85 Q 170.6 1.8 174.7 1.8 A 3.486 3.486 0 0 1 175.328 1.852 Q 175.653 1.912 175.89 2.041 A 1.164 1.164 0 0 1 176.5 2.9 Q 176.9 5.5 176.9 14.3 Z M 193.2 46.1 L 193.3 48.6 A 0.63 0.63 0 0 0 193.356 48.876 Q 193.513 49.2 194.1 49.2 A 15.756 15.756 0 0 0 197.187 48.611 A 12.437 12.437 0 0 0 199.7 47.55 A 14.11 14.11 0 0 0 201.392 46.442 Q 202.569 45.536 203.3 44.5 A 24.083 24.083 0 0 0 204.558 42.338 Q 205.738 40.022 205.894 38.171 A 6.975 6.975 0 0 0 205.9 38.1 L 206 36.9 Q 206 31.968 202.412 31.54 A 6.028 6.028 0 0 0 201.7 31.5 A 5.962 5.962 0 0 0 197.095 33.558 A 8.273 8.273 0 0 0 196.5 34.3 A 15.444 15.444 0 0 0 193.999 39.542 Q 193.401 41.723 193.251 44.311 A 30.786 30.786 0 0 0 193.2 46.1 Z M 450.4 46.1 L 450.5 48.6 A 0.63 0.63 0 0 0 450.556 48.876 Q 450.713 49.2 451.3 49.2 A 15.756 15.756 0 0 0 454.387 48.611 A 12.437 12.437 0 0 0 456.9 47.55 A 14.11 14.11 0 0 0 458.592 46.442 Q 459.769 45.536 460.5 44.5 A 24.083 24.083 0 0 0 461.758 42.338 Q 462.938 40.022 463.094 38.171 A 6.975 6.975 0 0 0 463.1 38.1 L 463.2 36.9 Q 463.2 31.968 459.612 31.54 A 6.028 6.028 0 0 0 458.9 31.5 A 5.962 5.962 0 0 0 454.295 33.558 A 8.273 8.273 0 0 0 453.7 34.3 A 15.444 15.444 0 0 0 451.199 39.542 Q 450.601 41.723 450.451 44.311 A 30.786 30.786 0 0 0 450.4 46.1 Z" vector-effect="non-scaling-stroke"/></g></svg>